<svg xmlns="http://www.w3.org/2000/svg" xml:space="preserve" width="215" style="enable-background:new 0 0 327.4 29.81" viewBox="0 0 327.4 29.81"><g fill="#FFF" fill-rule="evenodd" class="fill-current text-white"><path d="m319.17 29.8-29.59.01V7.62h-18.36c-5.81 0-12.47.8-12.46 6.99 0 2.5 1.62 6.69 12.46 6.69l14.66.01-8.29 8.51h-10.9c-8.37.01-16.41-4.39-19.1-10.45l-.86-1.92v12.37l-13.91.01v-8.61h-12.1l7.96-7.42 4.14.01V6.18L207.47 29.8l-18.43.02L223.55.04l23.19-.01V12.4l.86-1.92C250.29 4.43 258.33.04 266.7.04L327.32 0l-8.16 7.62h-15.68v3.41h19.2l-7.49 7.01h-11.71v3.24h23.91l-8.22 8.52zM219.68 0 169.1.01l.01 29.8h13.91V18.65h15.03l8.89-7.62-23.92.01V7.62h27.86zM13.84 7.71v6.06l13.41-.02c3.82 0 5.55-1.58 5.55-3.07 0-1.11-.56-2.97-4.26-2.97h-14.7zM30.93.04c11.21 0 16.9 3.05 16.9 9.07 0 5.28-9.84 9.48-12.56 9.48l4.22 3.65L65.18.05c.33 0 22.22-.01 23.07 0v12.3l.86-1.91c2.68-6.03 10.68-10.4 19-10.4h60.35l-8.11 7.59h-15.61v3.39l19.09-.01-7.44 6.98h-11.65v3.23h23.79l-8.2 8.46-29.43.02V7.63h-18.29c-5.78 0-12.41.79-12.41 6.94 0 2.49 1.61 6.65 12.41 6.65h14.61l-8.27 8.47H108.1c-8.32 0-16.33-4.37-19-10.39l-.86-1.92v12.3H74.41v-8.56H62.36l7.93-7.39 4.11.01V6.16L49.18 29.67l-18.32.03-17.02-15.33V29.7H0V.04h30.93z"/></g></svg>