<?xml version="1.0" encoding="utf-8"?>
<!-- Generator: Adobe Illustrator 22.0.1, SVG Export Plug-In . SVG Version: 6.00 Build 0)  -->
<svg version="1.1" id="Layer_1" xmlns="http://www.w3.org/2000/svg" xmlns:xlink="http://www.w3.org/1999/xlink" x="0px" y="0px"
	 viewBox="0 0 448.4 88.8" style="enable-background:new 0 0 448.4 88.8;" xml:space="preserve">
<style type="text/css">
	.st0{fill:#FFFFFF;}
</style>
<title>Bitbucket-blue</title>
<g>
	<path class="st0" d="M233.6,31.3l-7.9,13.4h6.5L233.6,31.3z M98.7,19.9l-6.4,0L80.5,47.4c1.8-0.3,7.3-1.1,8.6-1.5
		c1.6-0.5,2.9-2.1,4.8-6.1c1.9-4,4.7-11.3,6.2-15C101.6,21.2,100.3,19.9,98.7,19.9 M348.3,16c3.4,0,5,2.9,1.7,6.3
		c-3.3,3.4-37.1,40.2-38.2,41.5c-1.1,1.3-1.6,2.6,0.4,2.6l20.5,0l-1.8,4.7l-31.7,0c-3.7,0-5.1-2.6-1.5-6.4
		c3.6-3.9,37.8-40.7,39.1-42.2c1.3-1.4,0.9-2.1-0.3-2.1l-18.6,0l1.6-4.4L348.3,16z M280.3,16c0,0-18.4,43.8-19.8,46.9
		c-1.4,3.1,0.4,3.5,2.1,3.5l12,0l-1.8,4.7l-21.9,0c-4.1,0-5.5-2.7-3.3-7.9c2.2-5.1,20.4-47.2,20.4-47.2L280.3,16z M246.4,16
		l-4.6,55.1l-12.2,0l2.4-22.4l-10,0l-14.8,22.4l-11.8,0c0,0,33.7-49.7,34.9-51.5c1.2-1.8,3.8-3.6,5.5-3.6L246.4,16z M213.9,16.1
		l-23.4,55.1l-12.8,0l23.9-55.1L213.9,16.1z M313.7,16l-23.4,55.1l-12.8,0L301.3,16L313.7,16z M195,16.1l-1.8,3.9l-16.3,0
		c-4.1,0-4.5,1.8-5.4,3.7c-0.9,1.9-16.1,37.5-17,39.4c-0.9,1.9-0.8,3.4,1.8,3.4l12.8,0h3.8l-1.5,4.7l-26.3,0c-4.7,0-5.6-3.1-3.9-7.1
		c1.7-4,17.5-40.7,18.8-43.9c1.3-3.2,4.7-4.1,8.5-4.1L195,16.1z M156.4,16.1l-1.9,3.8l-14.7,0c-4.1,0-5.5,1.1-6.9,4.2
		c-1.4,3.1-7.4,17.3-7.4,17.3l15.8,0l-2.1,4l-15.3,0c0,0-5.9,13.5-7.4,16.9c-1.5,3.4-1.1,4.3,1.4,4.3l12.8,0h3.8l-2,4.7l-25.8,0
		c-3.6,0-6-1.8-3.7-7.2c2.2-5.5,16.1-37.8,18-42.2c1.9-4.3,4.9-5.7,9.3-5.7L156.4,16.1z M392.6,16l-1.9,3.8l-14.7,0
		c-4.1,0-5.5,1.1-6.9,4.2c-1.4,3.1-7.3,17.3-7.3,17.3l15.8,0l-2.1,4l-15.3,0c0,0-5.9,13.5-7.4,16.9c-1.5,3.4-1.1,4.3,1.4,4.3l12.8,0
		h3.8l-2,4.7l-25.8,0c-3.6,0-6-1.8-3.7-7.2c2.2-5.5,16.1-37.8,18-42.2c1.9-4.3,4.9-5.7,9.3-5.7L392.6,16z M108.8,16.1
		c4.5,0,6.6,3.4,4.7,8.4c-1.9,5-4,9.5-7.1,16.6c-3.1,7.1-5.3,7.9-11.2,8.7c-5.9,0.8-16.9,2.3-16.9,2.3l-8.4,19.1l-12.1,0l24.4-55.1
		L108.8,16.1z M75.8,16.1L73.9,20l-17.7-0.1c-2.3,0-3.7,1.5-4.9,3.5c-1.3,2.1-1.7,3.7-2.8,6.3c-1.2,2.6-1.1,5.3,1.1,7.1
		c2.2,1.8,4.9,4.3,7.2,6.3c4.3,3.7,5.5,5.4,2,13.4c-2.7,6.1-1.3,3.4-3.6,8.5c-2.4,5.2-5,6.3-9.1,6.3l-28,0l2.4-4.7l17.3,0
		c3.1,0,4-1.6,5.4-4.3c1.4-2.7,1.8-3.5,3.5-7.6c1.7-4,2.2-6-0.1-8.2c-2.3-2.3-5.4-4.8-8.8-7.9c-3.4-3-3.3-3.9-1.6-8.2
		c1.8-4.3,2.4-5.8,4.2-9.8c1.7-4,4.9-4.4,8.2-4.4L75.8,16.1z M394.5,66.3l3.1,0c3.1,0,4-1.6,5.1-3.9c1.1-2.3,14.7-33.5,16.2-37.3
		c1.5-3.9,0.4-4.8-1.9-4.8l-8.1,0l-19.7,46h3.9H394.5z M374.9,70.9l23.6-55.2l30,0c4.4,0,5.2,4.5,3.9,7.7
		C431.2,26.7,416.7,60,415,64c-1.7,4-4.2,6.9-8.4,6.9L374.9,70.9z"/>
	<path class="st0" d="M420.7,83c1.1,0,2.2-0.4,2.9-1.2c0.8-0.8,1.2-1.8,1.2-2.9c0-1.1-0.4-2.1-1.2-2.9c-0.8-0.8-1.8-1.2-2.9-1.2
		c-2.3,0-4.2,1.9-4.2,4.1c0,1.1,0.4,2.2,1.2,2.9C418.6,82.6,419.6,83,420.7,83 M417,78.9c0-1,0.4-1.9,1.1-2.6
		c0.7-0.7,1.6-1.1,2.6-1.1c1,0,1.9,0.4,2.6,1.1c0.7,0.7,1.1,1.6,1.1,2.6c0,2-1.7,3.7-3.7,3.7c-1,0-1.9-0.4-2.6-1.1
		C417.4,80.8,417,79.8,417,78.9"/>
	<path class="st0" d="M419,76.7h2.2c1.1,0,1.4,0.8,1.4,1.2c0,0.5-0.2,0.9-0.7,1c0.4,0.2,0.5,0.3,0.5,1.1c0,0.6,0,0.8,0.2,0.9V81h-1
		c-0.1-0.2-0.1-0.4-0.1-0.9c0-0.6,0-0.8-0.7-0.8h-0.9V81H419V76.7z M421,78.6c0.5,0,0.7-0.2,0.7-0.6c0-0.2-0.1-0.6-0.6-0.6h-1.1v1.2
		H421z"/>
</g>
</svg>
